<svg width="60" height="60" viewBox="0 0 60 60" fill="none" xmlns="http://www.w3.org/2000/svg">
<path d="M10 32.5H17.5V37.5H10V32.5ZM22.5 37.5H30V32.5H22.5V37.5ZM10 47.5H17.5V42.5H10V47.5ZM22.5 47.5H30V42.5H22.5V47.5ZM10 17.5H17.5V12.5H10V17.5ZM22.5 17.5H30V12.5H22.5V17.5ZM10 27.5H17.5V22.5H10V27.5ZM22.5 27.5H30V22.5H22.5V27.5ZM60 20V60H0V7.5C0 5.51088 0.790176 3.60322 2.1967 2.1967C3.60322 0.790176 5.51088 0 7.5 0L32.5 0C34.4891 0 36.3968 0.790176 37.8033 2.1967C39.2098 3.60322 40 5.51088 40 7.5V12.5H52.5C54.4891 12.5 56.3968 13.2902 57.8033 14.6967C59.2098 16.1032 60 18.0109 60 20ZM35 7.5C35 6.83696 34.7366 6.20107 34.2678 5.73223C33.7989 5.26339 33.163 5 32.5 5H7.5C6.83696 5 6.20107 5.26339 5.73223 5.73223C5.26339 6.20107 5 6.83696 5 7.5V55H35V7.5ZM55 20C55 19.337 54.7366 18.7011 54.2678 18.2322C53.7989 17.7634 53.163 17.5 52.5 17.5H40V55H55V20ZM45 37.5H50V32.5H45V37.5ZM45 47.5H50V42.5H45V47.5ZM45 27.5H50V22.5H45V27.5Z" fill="#C59C48"/>
</svg>
