<svg width="50" height="60" viewBox="0 0 50 60" fill="none" xmlns="http://www.w3.org/2000/svg">
<path d="M31.0355 0H7.50049C5.51136 0 3.60371 0.790176 2.19719 2.1967C0.790665 3.60322 0.000488281 5.51088 0.000488281 7.5V60H50.0005V18.965L31.0355 0ZM32.5005 8.535L41.4655 17.5H32.5005V8.535ZM5.00049 55V7.5C5.00049 6.83696 5.26388 6.20107 5.73272 5.73223C6.20156 5.26339 6.83745 5 7.50049 5H27.5005V22.5H45.0005V55H5.00049ZM33.233 32.805L36.768 36.34L27.803 45.3025C27.1065 45.9991 26.2797 46.5516 25.3697 46.9286C24.4596 47.3056 23.4843 47.4996 22.4992 47.4996C21.5142 47.4996 20.5388 47.3056 19.6288 46.9286C18.7188 46.5516 17.8919 45.9991 17.1955 45.3025L13.233 41.34L16.768 37.805L20.733 41.7675C21.2089 42.2226 21.842 42.4766 22.5005 42.4766C23.159 42.4766 23.7921 42.2226 24.268 41.7675L33.233 32.805Z" fill="#C59C48"/>
</svg>
