<svg width="60" height="60" viewBox="0 0 60 60" fill="none" xmlns="http://www.w3.org/2000/svg">
<g clip-path="url(#clip0_116_150)">
<path d="M7.5 54.94C6.83696 54.94 6.20107 54.6766 5.73223 54.2078C5.26339 53.7389 5 53.103 5 52.44V0H0V52.44C0 54.4291 0.790176 56.3368 2.1967 57.7433C3.60322 59.1498 5.51088 59.94 7.5 59.94H60V54.94H7.5Z" fill="#C59C48"/>
<path d="M17.5005 30H12.5005V47.5H17.5005V30Z" fill="#C59C48"/>
<path d="M29.9995 24.9996H24.9995V47.4996H29.9995V24.9996Z" fill="#C59C48"/>
<path d="M42.5 32.4996H37.5V47.4996H42.5V32.4996Z" fill="#C59C48"/>
<path d="M55.0005 22.5H50.0005V47.5H55.0005V22.5Z" fill="#C59C48"/>
<path d="M27.4994 11.0354L39.9994 23.5354L59.2669 4.26791L55.7319 0.73291L39.9994 16.4654L27.4994 3.96541L13.2319 18.2329L16.7669 21.7679L27.4994 11.0354Z" fill="#C59C48"/>
</g>
<defs>
<clipPath id="clip0_116_150">
<rect width="60" height="60" fill="white"/>
</clipPath>
</defs>
</svg>
