<svg width="46" height="60" viewBox="0 0 46 60" fill="none" xmlns="http://www.w3.org/2000/svg">
<path d="M41.8375 7.80511L37.6975 3.66011C36.5392 2.49589 35.1615 1.57296 33.6441 0.944721C32.1267 0.316484 30.4998 -0.00457895 28.8575 0.000111699H13C9.68601 0.00408134 6.50889 1.32232 4.16555 3.66566C1.8222 6.00901 0.50397 9.18612 0.5 12.5001V47.5001C0.50397 50.8141 1.8222 53.9912 4.16555 56.3346C6.50889 58.6779 9.68601 59.9961 13 60.0001H33C36.314 59.9961 39.4911 58.6779 41.8345 56.3346C44.1778 53.9912 45.496 50.8141 45.5 47.5001V16.6426C45.504 15.0006 45.1824 13.374 44.5538 11.8571C43.9251 10.3402 43.0019 8.96293 41.8375 7.80511V7.80511ZM38.3025 11.3401C38.6571 11.6934 38.9746 12.0821 39.25 12.5001H33V6.25011C33.4173 6.52841 33.8067 6.84657 34.1625 7.20011L38.3025 11.3401ZM40.5 47.5001C40.5 49.4892 39.7098 51.3969 38.3033 52.8034C36.8968 54.2099 34.9891 55.0001 33 55.0001H13C11.0109 55.0001 9.10322 54.2099 7.6967 52.8034C6.29018 51.3969 5.5 49.4892 5.5 47.5001V12.5001C5.5 10.511 6.29018 8.60333 7.6967 7.19681C9.10322 5.79029 11.0109 5.00011 13 5.00011H28V12.5001C28 13.8262 28.5268 15.098 29.4645 16.0356C30.4021 16.9733 31.6739 17.5001 33 17.5001H40.5V47.5001ZM33 22.5001C33.663 22.5001 34.2989 22.7635 34.7678 23.2323C35.2366 23.7012 35.5 24.3371 35.5 25.0001C35.5 25.6632 35.2366 26.299 34.7678 26.7679C34.2989 27.2367 33.663 27.5001 33 27.5001H13C12.337 27.5001 11.7011 27.2367 11.2322 26.7679C10.7634 26.299 10.5 25.6632 10.5 25.0001C10.5 24.3371 10.7634 23.7012 11.2322 23.2323C11.7011 22.7635 12.337 22.5001 13 22.5001H33ZM35.5 35.0001C35.5 35.6632 35.2366 36.299 34.7678 36.7679C34.2989 37.2367 33.663 37.5001 33 37.5001H13C12.337 37.5001 11.7011 37.2367 11.2322 36.7679C10.7634 36.299 10.5 35.6632 10.5 35.0001C10.5 34.3371 10.7634 33.7012 11.2322 33.2323C11.7011 32.7635 12.337 32.5001 13 32.5001H33C33.663 32.5001 34.2989 32.7635 34.7678 33.2323C35.2366 33.7012 35.5 34.3371 35.5 35.0001ZM35.02 43.5326C35.4086 44.0672 35.5697 44.734 35.468 45.3871C35.3664 46.0402 35.0102 46.6264 34.4775 47.0176C31.9445 48.8225 28.9445 49.8581 25.8375 50.0001C24.0222 49.9914 22.2621 49.3753 20.8375 48.2501C20.0175 47.6876 19.705 47.5001 19.0875 47.5001C17.4161 47.7588 15.839 48.4422 14.5075 49.4851C13.9794 49.8616 13.3256 50.0181 12.6842 49.9216C12.0429 49.825 11.4641 49.483 11.0702 48.9678C10.6763 48.4525 10.4981 47.8043 10.5731 47.1601C10.6482 46.5159 10.9707 45.926 11.4725 45.5151C13.6754 43.805 16.3207 42.759 19.0975 42.5001C20.7628 42.5267 22.3728 43.1023 23.6775 44.1376C24.2722 44.6725 25.0379 44.9783 25.8375 45.0001C27.8817 44.847 29.8474 44.1486 31.53 42.9776C32.0665 42.5887 32.7355 42.4287 33.3899 42.5328C34.0443 42.6369 34.6306 42.9965 35.02 43.5326V43.5326Z" fill="#C59C48"/>
</svg>
