<svg width="60" height="60" viewBox="0 0 60 60" fill="none" xmlns="http://www.w3.org/2000/svg">
<g clip-path="url(#clip0_116_140)">
<path d="M30 29.9998C32.9667 29.9998 35.8668 29.1201 38.3336 27.4719C40.8003 25.8236 42.7229 23.481 43.8582 20.7401C44.9935 17.9992 45.2906 14.9832 44.7118 12.0735C44.133 9.16375 42.7044 6.49101 40.6066 4.39322C38.5088 2.29543 35.8361 0.866823 32.9264 0.288044C30.0166 -0.290734 27.0006 0.00631618 24.2597 1.14163C21.5189 2.27695 19.1762 4.19953 17.528 6.66627C15.8797 9.13301 15 12.0331 15 14.9998C15.004 18.9769 16.5856 22.7899 19.3978 25.602C22.21 28.4142 26.023 29.9959 30 29.9998ZM30 4.99982C31.9778 4.99982 33.9112 5.58631 35.5557 6.68513C37.2002 7.78394 38.4819 9.34573 39.2388 11.173C39.9957 13.0003 40.1937 15.0109 39.8079 16.9507C39.422 18.8905 38.4696 20.6724 37.0711 22.0709C35.6725 23.4694 33.8907 24.4218 31.9509 24.8077C30.0111 25.1935 28.0004 24.9955 26.1732 24.2386C24.3459 23.4817 22.7841 22.2 21.6853 20.5555C20.5865 18.911 20 16.9776 20 14.9998C20 12.3477 21.0536 9.80412 22.9289 7.92876C24.8043 6.05339 27.3478 4.99982 30 4.99982V4.99982Z" fill="#C59C48"/>
<path d="M30 35.0015C24.0347 35.0081 18.3155 37.3808 14.0974 41.5989C9.87927 45.8171 7.50662 51.5362 7.5 57.5015C7.5 58.1646 7.76339 58.8005 8.23223 59.2693C8.70107 59.7381 9.33696 60.0015 10 60.0015C10.663 60.0015 11.2989 59.7381 11.7678 59.2693C12.2366 58.8005 12.5 58.1646 12.5 57.5015C12.5 52.8602 14.3437 48.409 17.6256 45.1272C20.9075 41.8453 25.3587 40.0015 30 40.0015C34.6413 40.0015 39.0925 41.8453 42.3744 45.1272C45.6563 48.409 47.5 52.8602 47.5 57.5015C47.5 58.1646 47.7634 58.8005 48.2322 59.2693C48.7011 59.7381 49.337 60.0015 50 60.0015C50.663 60.0015 51.2989 59.7381 51.7678 59.2693C52.2366 58.8005 52.5 58.1646 52.5 57.5015C52.4934 51.5362 50.1207 45.8171 45.9026 41.5989C41.6845 37.3808 35.9653 35.0081 30 35.0015V35.0015Z" fill="#C59C48"/>
</g>
<defs>
<clipPath id="clip0_116_140">
<rect width="60" height="60" fill="white"/>
</clipPath>
</defs>
</svg>
