<svg width="56" height="60" viewBox="0 0 56 60" fill="none" xmlns="http://www.w3.org/2000/svg">
<path d="M0.499512 60H55.4995V7.49997C55.4995 5.51085 54.7093 3.60319 53.3028 2.19667C51.8963 0.790146 49.9886 -3.05176e-05 47.9995 -3.05176e-05L7.99951 -3.05176e-05C6.01039 -3.05176e-05 4.10273 0.790146 2.69621 2.19667C1.28969 3.60319 0.499512 5.51085 0.499512 7.49997V60ZM5.49951 7.49997C5.49951 6.83693 5.7629 6.20104 6.23174 5.7322C6.70059 5.26336 7.33647 4.99997 7.99951 4.99997H47.9995C48.6626 4.99997 49.2984 5.26336 49.7673 5.7322C50.2361 6.20104 50.4995 6.83693 50.4995 7.49997V55H5.49951V7.49997ZM10.4995 25H45.4995V9.99997H10.4995V25ZM15.4995 15H40.4995V20H15.4995V15ZM10.4995 32.5H15.4995V37.5H10.4995V32.5ZM20.4995 32.5H25.4995V37.5H20.4995V32.5ZM35.4995 32.5V37.5H30.4995V32.5H35.4995ZM10.4995 42.5H15.4995V47.5H10.4995V42.5ZM20.4995 42.5H25.4995V47.5H20.4995V42.5ZM40.4995 32.5H45.4995V37.5H40.4995V32.5ZM30.4995 42.5H45.4995V47.5H30.4995V42.5Z" fill="#C59C48"/>
</svg>
